<svg width="22" height="22" viewBox="0 0 22 22" fill="none" xmlns="http://www.w3.org/2000/svg">
<path d="M21.9895 17.358C22.0361 17.7152 21.9273 18.0257 21.6634 18.2896L18.5659 21.3638C18.4261 21.519 18.2438 21.6511 18.0186 21.7597C17.7935 21.8684 17.5723 21.9383 17.355 21.9693C17.3394 21.9693 17.2927 21.9733 17.2151 21.981C17.1376 21.9888 17.0366 21.9927 16.9124 21.9927C16.6173 21.9927 16.1399 21.9423 15.48 21.8413C14.8201 21.7403 14.0128 21.4919 13.058 21.096C12.1029 20.7001 11.02 20.1061 9.80895 19.3144C8.59791 18.5226 7.30917 17.4357 5.94283 16.0538C4.85597 14.9824 3.95543 13.9577 3.24121 12.9796C2.52699 12.0014 1.9525 11.0969 1.51776 10.2663C1.08298 9.43559 0.75692 8.68255 0.539548 8.00714C0.322176 7.33174 0.174674 6.74949 0.097041 6.2604C0.0194082 5.77132 -0.0116449 5.38703 0.00388164 5.10756C0.0194082 4.82808 0.0271715 4.67281 0.0271715 4.64176C0.0582246 4.42439 0.128094 4.20313 0.23678 3.978C0.345466 3.75286 0.477442 3.57043 0.632707 3.43069L3.73026 0.333138C3.94763 0.115766 4.19605 0.00708008 4.47553 0.00708008C4.67738 0.00708008 4.85593 0.0653047 5.0112 0.181754C5.16646 0.298203 5.29844 0.441824 5.40713 0.612616L7.89914 5.34045C8.03888 5.58888 8.0777 5.86059 8.01559 6.1556C7.95348 6.4506 7.82151 6.69903 7.61966 6.90087L6.47846 8.04208C6.44741 8.07313 6.42023 8.12359 6.39694 8.19346C6.37365 8.26333 6.36201 8.32155 6.36201 8.36813C6.42412 8.69419 6.56386 9.06683 6.78123 9.48605C6.96755 9.85868 7.25479 10.3128 7.64295 10.8485C8.03112 11.3842 8.58231 12.0013 9.29653 12.7C9.99523 13.4143 10.6163 13.9693 11.1597 14.3653C11.703 14.7611 12.1573 15.0523 12.5222 15.2386C12.8871 15.425 13.1666 15.5375 13.3606 15.5762L13.6517 15.6345C13.6827 15.6345 13.7333 15.6228 13.8031 15.5996C13.8729 15.5762 13.9234 15.5491 13.9545 15.518L15.282 14.1672C15.5616 13.9188 15.8875 13.7946 16.2602 13.7946C16.5242 13.7946 16.7337 13.8411 16.889 13.9343H16.9122L21.4071 16.5894C21.7333 16.7914 21.9274 17.0475 21.9895 17.358Z" fill="#EF7D00"/>
</svg>
